<svg width="409" height="410" viewBox="0 0 409 410" fill="none" xmlns="http://www.w3.org/2000/svg">
<circle cx="204.5" cy="205" r="169.016" stroke="url(#paint0_linear_220:125)" stroke-width="1.86758" stroke-dasharray="11.21 11.21"/>
<circle cx="322.998" cy="86.9983" r="85.9983" fill="#194351"/>
<g clip-path="url(#clip0_220:125)">
<path d="M318 62C318 53.715 312.405 47 305.5 47C298.595 47 293 53.715 293 62C293 69.155 297.18 75.115 302.765 76.615L298.05 118.655C298.015 118.93 298 119.215 298 119.5C298 123.64 301.36 127 305.5 127C309.64 127 313 123.64 313 119.5C313 119.26 312.99 119.02 312.965 118.785L308.955 76.345C314.165 74.54 318 68.835 318 62Z" fill="#F7F7EF"/>
<path d="M350.5 47C349.12 47 348 48.12 348 49.5V62C348 63.38 346.88 64.5 345.5 64.5C344.12 64.5 343 63.38 343 62V49.5C343 48.12 341.88 47 340.5 47C339.12 47 338 48.12 338 49.5V62C338 63.38 336.88 64.5 335.5 64.5C334.12 64.5 333 63.38 333 62V49.5C333 48.12 331.88 47 330.5 47C329.12 47 328 48.12 328 49.5V64.5C328 70.445 332.18 75.42 337.755 76.675L333.045 118.655C333.015 118.93 333 119.215 333 119.5C333 123.64 336.36 127 340.5 127C344.64 127 348 123.64 348 119.5C348 119.26 347.99 119.02 347.965 118.785L343.965 76.45C349.165 74.935 353 70.18 353 64.5V49.5C353 48.12 351.88 47 350.5 47Z" fill="#F7F7EF"/>
</g>
<circle cx="85.9983" cy="323.998" r="85.9983" fill="#194351"/>
<g clip-path="url(#clip1_220:125)">
<path d="M76.0002 286.501C76.0002 292.016 80.4851 296.501 86 296.501C91.5099 296.501 95.9998 292.016 95.9998 286.501H76.0002Z" fill="#F7F7EF"/>
<path d="M124.739 296.831L107.24 286.831C106.865 286.616 106.435 286.501 106 286.501H101C101 294.771 94.2698 301.501 86 301.501C77.7302 301.501 71.0003 294.771 71.0003 286.501H66.0004C65.5654 286.501 65.1405 286.616 64.7605 286.831L47.2608 296.831C46.2609 297.401 45.7809 298.581 46.0959 299.686L51.0958 317.185C51.4657 318.485 52.8157 319.25 54.1057 318.925L61.0005 317.205V358.999C61.0005 360.379 62.1205 361.499 63.5005 361.499H108.5C109.879 361.499 110.999 360.379 110.999 358.999V317.205L117.894 318.925C119.184 319.255 120.529 318.485 120.904 317.185L125.904 299.686C126.219 298.581 125.739 297.401 124.739 296.831Z" fill="#F7F7EF"/>
</g>
<circle cx="322.998" cy="323.998" r="85.9983" fill="#FF8882"/>
<g clip-path="url(#clip2_220:125)">
<path d="M331.435 332H328.235C323.835 332 320.235 328.4 320.235 324C320.235 319.6 323.835 316 328.235 316H331.435C335.435 316 337.835 311.6 335.435 308.4C330.635 300.8 322.235 296 312.635 296C295.435 296 281.835 311.6 285.035 329.6C287.035 340.8 296.235 349.6 307.035 351.6C318.635 354 329.435 348.8 335.435 340C337.835 336.4 335.835 332 331.435 332ZM292.635 324C292.635 321.6 294.235 320 296.635 320C299.035 320 300.635 321.6 300.635 324C300.635 326.4 299.035 328 296.635 328C294.235 328 292.635 326 292.635 324ZM304.235 338C302.635 339.6 300.235 339.6 298.635 338C297.035 336.4 297.035 334 298.635 332.4C300.235 330.8 302.635 330.8 304.235 332.4C305.835 334 305.835 336.4 304.235 338ZM304.235 315.6C302.635 317.2 300.235 317.2 298.635 315.6C297.035 314 297.035 311.6 298.635 310C300.235 308.4 302.635 308.4 304.235 310C305.835 311.2 305.835 314 304.235 315.6ZM312.635 344C310.235 344 308.635 342.4 308.635 340C308.635 337.6 310.235 336 312.635 336C315.035 336 316.635 337.6 316.635 340C316.635 342 314.635 344 312.635 344ZM312.635 312C310.235 312 308.635 310.4 308.635 308C308.635 305.6 310.235 304 312.635 304C315.035 304 316.635 305.6 316.635 308C316.635 310 314.635 312 312.635 312Z" fill="#F7F7EF"/>
<path d="M345.435 330.4L349.035 360C349.435 362.4 351.035 364 353.435 364C355.835 364 357.835 362.4 357.835 360L361.435 330.4H345.435Z" fill="#F7F7EF"/>
<path d="M357.435 312H349.435L345.435 324H361.435L357.435 312Z" fill="#F7F7EF"/>
<path d="M352.635 284C351.035 288.8 349.035 292.4 346.635 294.8C342.635 299.2 347.835 308 352.635 308C357.435 308 361.435 304.4 361.435 300C361.435 295.6 352.635 284 352.635 284Z" fill="#F7F7EF"/>
</g>
<circle cx="85.9983" cy="86.9983" r="85.9983" fill="#FF8882"/>
<g clip-path="url(#clip3_220:125)">
<path d="M95.9998 65.6667C94.1598 65.6667 92.6665 64.1734 92.6665 62.3334V57.3334H79.3332V62.3334C79.3332 64.1734 77.8398 65.6667 75.9998 65.6667C74.1598 65.6667 72.6665 64.1734 72.6665 62.3334V57.3334C72.6665 53.6567 75.6565 50.6667 79.3332 50.6667H92.6665C96.3432 50.6667 99.3332 53.6567 99.3332 57.3334V62.3334C99.3332 64.1734 97.8398 65.6667 95.9998 65.6667Z" fill="#F7F7EF"/>
<path d="M88.3667 95.2667C87.7667 95.5 86.9 95.6667 86 95.6667C85.1 95.6667 84.2333 95.5 83.4333 95.2L46 82.7333V108.167C46 113.233 50.1 117.333 55.1667 117.333H116.833C121.9 117.333 126 113.233 126 108.167V82.7333L88.3667 95.2667Z" fill="#F7F7EF"/>
<path d="M126 69.8334V77.4667L86.8 90.5334C86.5333 90.6334 86.2667 90.6667 86 90.6667C85.7333 90.6667 85.4667 90.6334 85.2 90.5334L46 77.4667V69.8334C46 64.7667 50.1 60.6667 55.1667 60.6667H116.833C121.9 60.6667 126 64.7667 126 69.8334Z" fill="#F7F7EF"/>
</g>
<defs>
<linearGradient id="paint0_linear_220:125" x1="79.3722" y1="77.0708" x2="322.158" y2="354.406" gradientUnits="userSpaceOnUse">
<stop stop-color="#194351"/>
<stop offset="1" stop-color="#FF8882"/>
</linearGradient>
<clipPath id="clip0_220:125">
<rect width="80" height="80" fill="white" transform="translate(283 47)"/>
</clipPath>
<clipPath id="clip1_220:125">
<rect width="80" height="80" fill="white" transform="translate(46 284)"/>
</clipPath>
<clipPath id="clip2_220:125">
<rect width="80" height="80" fill="white" transform="translate(283 284)"/>
</clipPath>
<clipPath id="clip3_220:125">
<rect width="80" height="80" fill="white" transform="translate(46 44)"/>
</clipPath>
</defs>
</svg>
