<svg width="145" height="144" viewBox="0 0 145 144" fill="none" xmlns="http://www.w3.org/2000/svg">
<circle cx="72.5" cy="72" r="72" fill="#194351"/>
<path d="M96.072 59.1398L80.3411 43.4089C80.3186 43.3864 80.2941 43.3666 80.2708 43.3452C80.2404 43.3173 80.2109 43.2885 80.179 43.2622C80.1579 43.2449 80.1352 43.2298 80.1135 43.2132C80.0767 43.1851 80.0403 43.1565 80.0019 43.1305C79.9844 43.1189 79.9659 43.1091 79.9483 43.098C79.9037 43.0698 79.8591 43.0418 79.8124 43.0167C79.7997 43.01 79.7866 43.0047 79.7739 42.9983C79.7212 42.9711 79.6679 42.945 79.6128 42.9221C79.6043 42.9185 79.5953 42.9159 79.5866 42.9125C79.5274 42.8887 79.4674 42.8665 79.4059 42.8478C79.3969 42.845 79.3877 42.8434 79.3788 42.8408C79.3178 42.823 79.2562 42.8067 79.193 42.7941C79.173 42.7901 79.1522 42.7883 79.132 42.7849C79.0799 42.7758 79.0279 42.7666 78.9748 42.7614C78.9001 42.7538 78.8251 42.75 78.75 42.75H51.7478C50.5547 42.7514 49.4109 43.2259 48.5673 44.0695C47.7237 44.9131 47.2492 46.0569 47.2478 47.25V96.75C47.2492 97.9431 47.7237 99.0869 48.5673 99.9305C49.4109 100.774 50.5547 101.249 51.7478 101.25H92.25C93.4431 101.249 94.5869 100.774 95.4305 99.9305C96.2741 99.0869 96.7486 97.9431 96.75 96.75V60.7935C96.7503 60.7788 96.7522 60.7647 96.7522 60.75C96.7524 60.4497 96.6923 60.1525 96.5755 59.8759C96.4586 59.5993 96.2874 59.349 96.072 59.1398ZM81 85.5H63C62.4033 85.5 61.831 85.2629 61.409 84.841C60.9871 84.419 60.75 83.8467 60.75 83.25C60.75 82.6533 60.9871 82.081 61.409 81.659C61.831 81.2371 62.4033 81 63 81H81C81.5967 81 82.169 81.2371 82.591 81.659C83.0129 82.081 83.25 82.6533 83.25 83.25C83.25 83.8467 83.0129 84.419 82.591 84.841C82.169 85.2629 81.5967 85.5 81 85.5ZM81 76.5H63C62.4033 76.5 61.831 76.2629 61.409 75.841C60.9871 75.419 60.75 74.8467 60.75 74.25C60.75 73.6533 60.9871 73.081 61.409 72.659C61.831 72.2371 62.4033 72 63 72H81C81.5967 72 82.169 72.2371 82.591 72.659C83.0129 73.081 83.25 73.6533 83.25 74.25C83.25 74.8467 83.0129 75.419 82.591 75.841C82.169 76.2629 81.5967 76.5 81 76.5ZM78.75 60.75V48.1819L91.3178 60.75H78.75Z" fill="#F7F7EF"/>
</svg>
