<svg width="145" height="144" viewBox="0 0 145 144" fill="none" xmlns="http://www.w3.org/2000/svg">
<circle cx="72.5" cy="72" r="72" fill="#194351"/>
<path d="M102.252 62.0689L82.9335 42.7505C82.0888 41.9081 80.9444 41.435 79.7514 41.4351C78.5584 41.4351 77.4141 41.9083 76.5694 42.7508L69.505 49.8153L53.1776 55.9381C52.4388 56.2164 51.786 56.6837 51.2844 57.2933C50.7827 57.9028 50.4497 58.6333 50.3187 59.4118L44.4781 94.4548C44.4389 94.6899 44.4754 94.9314 44.5823 95.1444C44.6893 95.3574 44.8611 95.531 45.073 95.64C45.285 95.7491 45.5261 95.788 45.7616 95.7512C45.9971 95.7144 46.2148 95.6037 46.3833 95.4352L61.8757 79.9424C60.7616 78.0531 60.3748 75.8222 60.7878 73.6681C61.2009 71.514 62.3856 69.5845 64.1196 68.2414C65.8537 66.8983 68.0181 66.2338 70.2071 66.3726C72.3961 66.5113 74.4593 67.4437 76.0099 68.9949C77.5606 70.5462 78.4922 72.6098 78.63 74.7988C78.7679 76.9878 78.1026 79.152 76.7588 80.8855C75.415 82.6191 73.4851 83.8029 71.3308 84.2152C69.1765 84.6274 66.9458 84.2398 65.057 83.1248L49.5625 98.6198C49.394 98.7884 49.2834 99.0061 49.2466 99.2416C49.2098 99.4771 49.2487 99.7182 49.3578 99.9301C49.4668 100.142 49.6404 100.314 49.8534 100.421C50.0664 100.528 50.3079 100.564 50.543 100.525L85.5906 94.6837C86.369 94.5527 87.0995 94.2198 87.709 93.7181C88.3186 93.2165 88.7858 92.5638 89.0642 91.8251L95.187 75.4975L102.251 68.433C102.669 68.0151 103.001 67.5191 103.227 66.9731C103.453 66.4271 103.57 65.842 103.57 65.251C103.57 64.66 103.453 64.0748 103.227 63.5288C103.001 62.9828 102.67 62.4867 102.252 62.0689L102.252 62.0689ZM93.2516 71.0687L73.9337 51.7508L79.7516 45.9327L99.0694 65.2508L93.2516 71.0687Z" fill="#F7F7EF"/>
<path d="M69.6267 79.876C72.112 79.876 74.1267 77.8613 74.1267 75.376C74.1267 72.8907 72.112 70.876 69.6267 70.876C67.1414 70.876 65.1267 72.8907 65.1267 75.376C65.1267 77.8613 67.1414 79.876 69.6267 79.876Z" fill="#F7F7EF"/>
</svg>
