<svg width="145" height="144" viewBox="0 0 145 144" fill="none" xmlns="http://www.w3.org/2000/svg">
<circle cx="72.5" cy="72" r="72" fill="#194351"/>
<path d="M72 81C76.9706 81 81 76.9706 81 72C81 67.0294 76.9706 63 72 63C67.0294 63 63 67.0294 63 72C63 76.9706 67.0294 81 72 81Z" fill="#F7F7EF"/>
<path d="M84.375 43.875H59.625C55.4493 43.8797 51.446 45.5406 48.4933 48.4933C45.5406 51.446 43.8797 55.4493 43.875 59.625V84.375C43.8797 88.5507 45.5406 92.554 48.4933 95.5067C51.446 98.4594 55.4493 100.12 59.625 100.125H84.375C88.5507 100.12 92.554 98.4594 95.5067 95.5067C98.4594 92.554 100.12 88.5507 100.125 84.375V59.625C100.12 55.4493 98.4594 51.446 95.5067 48.4933C92.554 45.5406 88.5507 43.8797 84.375 43.875ZM72 85.5C69.33 85.5 66.7199 84.7082 64.4998 83.2248C62.2797 81.7414 60.5494 79.633 59.5276 77.1662C58.5058 74.6994 58.2385 71.985 58.7594 69.3663C59.2803 66.7475 60.566 64.3421 62.4541 62.4541C64.3421 60.566 66.7475 59.2803 69.3663 58.7594C71.985 58.2385 74.6994 58.5058 77.1662 59.5276C79.633 60.5494 81.7414 62.2797 83.2248 64.4998C84.7082 66.7199 85.5 69.33 85.5 72C85.496 75.5792 84.0723 79.0106 81.5415 81.5415C79.0106 84.0723 75.5792 85.496 72 85.5ZM86.625 60.75C85.9575 60.75 85.305 60.5521 84.75 60.1812C84.1949 59.8104 83.7624 59.2833 83.5069 58.6666C83.2515 58.0499 83.1846 57.3713 83.3148 56.7166C83.4451 56.0619 83.7665 55.4605 84.2385 54.9885C84.7105 54.5165 85.3119 54.1951 85.9666 54.0648C86.6213 53.9346 87.2999 54.0015 87.9166 54.2569C88.5333 54.5124 89.0604 54.9449 89.4312 55.5C89.8021 56.055 90 56.7075 90 57.375C90 58.2701 89.6444 59.1286 89.0115 59.7615C88.3785 60.3944 87.5201 60.75 86.625 60.75Z" fill="#F7F7EF"/>
</svg>
