<svg width="145" height="144" viewBox="0 0 145 144" fill="none" xmlns="http://www.w3.org/2000/svg">
<circle cx="72.5" cy="72" r="72" fill="#194351"/>
<path d="M94.5 51.75H86.7025L82.8704 46.002C82.665 45.6937 82.3866 45.441 82.06 45.2662C81.7334 45.0914 81.3688 45 80.9984 45H62.9984C62.6279 45 62.2633 45.0914 61.9367 45.2662C61.6101 45.441 61.3317 45.6937 61.1263 46.002L57.2943 51.75H49.5C47.7104 51.752 45.9947 52.4639 44.7293 53.7293C43.4639 54.9947 42.752 56.7104 42.75 58.5V90C42.752 91.7896 43.4639 93.5053 44.7293 94.7707C45.9947 96.0361 47.7104 96.748 49.5 96.75H94.5C96.2896 96.748 98.0053 96.0361 99.2707 94.7707C100.536 93.5053 101.248 91.7896 101.25 90V58.5C101.248 56.7104 100.536 54.9947 99.2707 53.7293C98.0053 52.4639 96.2896 51.752 94.5 51.75ZM82.125 73.125C82.125 75.1275 81.5312 77.0851 80.4186 78.7501C79.3061 80.4152 77.7248 81.7129 75.8747 82.4793C74.0246 83.2456 71.9888 83.4461 70.0247 83.0555C68.0607 82.6648 66.2566 81.7005 64.8405 80.2845C63.4245 78.8685 62.4602 77.0643 62.0695 75.1003C61.6789 73.1362 61.8794 71.1004 62.6457 69.2503C63.4121 67.4002 64.7098 65.8189 66.3749 64.7064C68.0399 63.5938 69.9975 63 72 63C74.6844 63.003 77.258 64.0707 79.1561 65.9689C81.0543 67.867 82.122 70.4406 82.125 73.125Z" fill="#F7F7EF"/>
</svg>
