<svg width="145" height="144" viewBox="0 0 145 144" fill="none" xmlns="http://www.w3.org/2000/svg">
<circle cx="72.5" cy="72" r="72" fill="#194351"/>
<path d="M85.5007 101.25C85.5007 101.847 85.2636 102.419 84.8416 102.841C84.4197 103.263 83.8474 103.5 83.2507 103.5H60.7507C60.154 103.5 59.5817 103.263 59.1597 102.841C58.7377 102.419 58.5007 101.847 58.5007 101.25C58.5007 100.654 58.7377 100.081 59.1597 99.6593C59.5817 99.2373 60.154 99.0003 60.7507 99.0003H83.2507C83.8474 99.0003 84.4197 99.2374 84.8416 99.6593C85.2636 100.081 85.5007 100.654 85.5007 101.25ZM96.7507 65.2503C96.7604 69.0011 95.913 72.7046 94.2732 76.078C92.6334 79.4514 90.2446 82.4056 87.289 84.715C86.7372 85.1379 86.2892 85.6812 85.9793 86.3035C85.6693 86.9258 85.5057 87.6107 85.5007 88.3059V90.0003C85.4993 91.1933 85.0248 92.3371 84.1812 93.1808C83.3375 94.0244 82.1937 94.4989 81.0007 94.5003H63.0007C61.8076 94.4989 60.6638 94.0244 59.8202 93.1808C58.9766 92.3371 58.5021 91.1933 58.5007 90.0003V88.304C58.4998 87.6162 58.3415 86.9377 58.0378 86.3205C57.7341 85.7034 57.2931 85.1639 56.7487 84.7436C53.8017 82.4488 51.4153 79.5139 49.7698 76.1609C48.1244 72.8079 47.2631 69.1245 47.251 65.3895C47.1771 51.9846 58.0126 40.8225 71.4052 40.5072C74.7046 40.4278 77.9866 41.0091 81.058 42.2169C84.1294 43.4247 86.9282 45.2346 89.2898 47.54C91.6514 49.8455 93.528 52.6 94.8093 55.6415C96.0906 58.6829 96.7507 61.9499 96.7507 65.2503ZM87.529 62.6075C86.9826 59.3941 85.45 56.4303 83.1438 54.1269C80.8375 51.8235 77.8718 50.2946 74.6577 49.7522C74.3663 49.7029 74.0679 49.7115 73.7798 49.7776C73.4917 49.8437 73.2194 49.9659 72.9785 50.1373C72.7377 50.3086 72.5329 50.5258 72.376 50.7763C72.2191 51.0268 72.1131 51.3058 72.0641 51.5973C72.015 51.8888 72.0239 52.1871 72.0902 52.4752C72.1565 52.7633 72.2789 53.0354 72.4505 53.2762C72.622 53.5169 72.8393 53.7215 73.09 53.8782C73.3406 54.0349 73.6197 54.1407 73.9112 54.1895C76.2038 54.5766 78.3192 55.6672 79.9642 57.3103C81.6092 58.9533 82.7024 61.0674 83.0922 63.3595C83.1811 63.8831 83.4522 64.3585 83.8576 64.7015C84.2631 65.0445 84.7768 65.233 85.3079 65.2338C85.4348 65.2338 85.5615 65.2231 85.6866 65.2019C85.978 65.1526 86.2567 65.0463 86.507 64.8892C86.7572 64.7321 86.9741 64.5272 87.1452 64.2863C87.3163 64.0454 87.4382 63.7732 87.5041 63.4851C87.5699 63.1971 87.5784 62.8989 87.529 62.6075Z" fill="#F7F7EF"/>
</svg>
