<svg width="108" height="108" viewBox="0 0 108 108" fill="none" xmlns="http://www.w3.org/2000/svg">
<circle cx="54" cy="54" r="54" fill="white"/>
<g clip-path="url(#clip0_141:123)">
<path d="M75 41.5156L65.225 31.3087C64.9 30.9694 64.5141 30.7002 64.0895 30.5165C63.6648 30.3328 63.2097 30.2383 62.7501 30.2383C62.2904 30.2383 61.8353 30.3328 61.4107 30.5165C60.986 30.7002 60.6002 30.9694 60.2752 31.3087L54.5129 37.3255L54.5126 37.3258L54.5123 37.3261L34.0253 58.7178C33.6992 59.0564 33.4407 59.4591 33.2647 59.9027C33.0887 60.3463 32.9988 60.8219 33 61.3021V71.5089C33.0011 72.4778 33.3702 73.4067 34.0263 74.0919C34.6825 74.777 35.5721 75.1624 36.5 75.1635H46.2752C46.735 75.1648 47.1905 75.0709 47.6153 74.8871C48.0401 74.7034 48.4258 74.4335 48.75 74.093L75.0001 46.6838C75.6555 45.9979 76.0235 45.0686 76.0235 44.0997C76.0235 43.1308 75.6554 42.2015 75 41.5156ZM68 48.8247L58.2249 38.6179L62.75 33.8928L72.5252 44.0997L68 48.8247Z" fill="#194351"/>
</g>
<defs>
<clipPath id="clip0_141:123">
<rect width="56" height="58.473" fill="white" transform="translate(26 24)"/>
</clipPath>
</defs>
</svg>
