<svg width="108" height="108" viewBox="0 0 108 108" fill="none" xmlns="http://www.w3.org/2000/svg">
<circle cx="54" cy="54" r="54" fill="#194351"/>
<path d="M76.0252 45.2499C76.0264 44.7901 75.9365 44.3346 75.7605 43.9098C75.5845 43.485 75.326 43.0993 75 42.7751L65.2248 32.9997C64.5678 32.3445 63.6778 31.9765 62.7499 31.9766C61.8219 31.9766 60.9319 32.3446 60.275 32.9999L34.025 59.25C33.6856 59.5892 33.4199 59.9947 33.2444 60.4413C33.2218 60.4956 33.202 60.5511 33.185 60.6075C33.0631 60.9674 33.0006 61.3447 33 61.7247V71.4999C33.0011 72.4278 33.3702 73.3175 34.0263 73.9736C34.6824 74.6297 35.5721 74.9988 36.5 74.9999H46.2752C46.6591 74.9992 47.0404 74.9354 47.4036 74.811C47.4558 74.7949 47.5073 74.7767 47.558 74.7557C48.0049 74.5802 48.4107 74.3143 48.75 73.9747L67.0519 55.6728L67.812 58.7131L59.7625 66.7625C59.6 66.925 59.4711 67.1179 59.3831 67.3303C59.2952 67.5426 59.2499 67.7702 59.25 68C59.25 68.2298 59.2952 68.4574 59.3832 68.6697C59.4712 68.882 59.6001 69.0749 59.7626 69.2374C59.9251 69.3999 60.118 69.5288 60.3304 69.6168C60.5427 69.7047 60.7703 69.75 61.0001 69.7499C61.2299 69.7499 61.4575 69.7047 61.6698 69.6167C61.8821 69.5287 62.075 69.3998 62.2375 69.2373L70.9875 60.4873C71.2012 60.2736 71.3558 60.0082 71.4365 59.717C71.5171 59.4257 71.521 59.1186 71.4477 58.8254L69.938 52.7867L74.9998 47.7249C75.3259 47.4007 75.5844 47.015 75.7604 46.5901C75.9364 46.1653 76.0264 45.7098 76.0252 45.2499ZM68 49.7749L58.2249 39.9999L62.75 35.4747L72.525 45.2499L68 49.7749Z" fill="white"/>
</svg>
