<svg width="108" height="108" viewBox="0 0 108 108" fill="none" xmlns="http://www.w3.org/2000/svg">
<circle cx="54" cy="54" r="54" fill="#194351"/>
<path d="M76.75 42.7751L65.2248 31.2497C64.5678 30.5945 63.6778 30.2265 62.7499 30.2266C61.822 30.2266 60.932 30.5946 60.275 31.2499L54.875 36.65L63.1125 44.8875C63.4407 45.2157 63.6251 45.6608 63.6251 46.125C63.625 46.5891 63.4407 47.0342 63.1124 47.3624C62.7842 47.6906 62.3391 47.875 61.875 47.8749C61.4108 47.8749 60.9657 47.6905 60.6375 47.3623L52.4001 39.1249L47 44.525L55.2375 52.7625C55.5657 53.0907 55.7501 53.5358 55.7501 54C55.75 54.4641 55.5657 54.9092 55.2374 55.2374C55.0749 55.3999 54.882 55.5288 54.6697 55.6167C54.4573 55.7047 54.2298 55.7499 54 55.7499C53.5358 55.7499 53.0907 55.5655 52.7625 55.2373L44.5251 46.9999L39.125 52.4L47.3625 60.6375C47.6907 60.9657 47.8751 61.4108 47.8751 61.875C47.875 62.3391 47.6907 62.7842 47.3624 63.1124C47.0342 63.4406 46.5891 63.625 46.125 63.6249C45.6608 63.6249 45.2157 63.4405 44.8875 63.1123L36.6501 54.8749L31.2502 60.2749C30.9252 60.5998 30.6673 60.9857 30.4914 61.4103C30.3154 61.835 30.2249 62.2901 30.2249 62.7497C30.2248 63.2094 30.3154 63.6646 30.4913 64.0892C30.6672 64.5139 30.925 64.8997 31.25 65.2247L42.7752 76.7501C43.4323 77.4053 44.3223 77.7732 45.2502 77.7732C46.1781 77.7731 47.0681 77.4051 47.7251 76.7499L76.75 47.7247C77.075 47.3997 77.3329 47.0139 77.5088 46.5893C77.6847 46.1646 77.7752 45.7095 77.7752 45.2499C77.7752 44.7903 77.6847 44.3351 77.5088 43.9105C77.3329 43.4859 77.075 43.1001 76.75 42.7751V42.7751Z" fill="white"/>
</svg>
