<svg width="108" height="108" viewBox="0 0 108 108" fill="none" xmlns="http://www.w3.org/2000/svg">
<circle cx="54" cy="54" r="54" fill="#194351"/>
<path d="M73.25 36.5H38.25C37.3221 36.5011 36.4324 36.8702 35.7763 37.5263C35.1202 38.1824 34.7511 39.0721 34.75 40V66.25C34.75 66.7141 34.5656 67.1593 34.2374 67.4874C33.9092 67.8156 33.4641 68 33 68C32.5359 68 32.0908 67.8156 31.7626 67.4874C31.4344 67.1593 31.25 66.7141 31.25 66.25V45.25C31.25 44.7859 31.0656 44.3408 30.7374 44.0126C30.4092 43.6844 29.9641 43.5 29.5 43.5C29.0359 43.5 28.5908 43.6844 28.2626 44.0126C27.9344 44.3408 27.75 44.7859 27.75 45.25V66.2733C27.7577 67.6611 28.3141 68.9896 29.2976 69.9688C30.2812 70.948 31.6121 71.4985 33 71.5H71.5C72.8919 71.4984 74.2263 70.9448 75.2106 69.9606C76.1948 68.9763 76.7484 67.6419 76.75 66.25V40C76.7489 39.0721 76.3798 38.1824 75.7237 37.5263C75.0676 36.8702 74.1779 36.5011 73.25 36.5ZM64.5 59.25H47C46.5359 59.25 46.0908 59.0656 45.7626 58.7374C45.4344 58.4093 45.25 57.9641 45.25 57.5C45.25 57.0359 45.4344 56.5907 45.7626 56.2626C46.0908 55.9344 46.5359 55.75 47 55.75H64.5C64.9641 55.75 65.4092 55.9344 65.7374 56.2626C66.0656 56.5907 66.25 57.0359 66.25 57.5C66.25 57.9641 66.0656 58.4093 65.7374 58.7374C65.4092 59.0656 64.9641 59.25 64.5 59.25ZM64.5 52.25H47C46.5359 52.25 46.0908 52.0656 45.7626 51.7374C45.4344 51.4092 45.25 50.9641 45.25 50.5C45.25 50.0359 45.4344 49.5908 45.7626 49.2626C46.0908 48.9344 46.5359 48.75 47 48.75H64.5C64.9641 48.75 65.4092 48.9344 65.7374 49.2626C66.0656 49.5908 66.25 50.0359 66.25 50.5C66.25 50.9641 66.0656 51.4092 65.7374 51.7374C65.4092 52.0656 64.9641 52.25 64.5 52.25Z" fill="white"/>
</svg>
