<svg width="145" height="144" viewBox="0 0 145 144" fill="none" xmlns="http://www.w3.org/2000/svg">
<circle cx="72.5" cy="72" r="72" fill="#194351"/>
<path d="M100.757 81.8446C101.022 82.1755 101.188 82.5745 101.235 82.9956C101.283 83.4167 101.211 83.8427 101.028 84.2247C100.844 84.6067 100.556 84.929 100.198 85.1547C99.839 85.3803 99.4238 85.5 99 85.5H49.5V96.75C49.5 97.3467 49.2629 97.919 48.841 98.341C48.419 98.7629 47.8467 99 47.25 99C46.6533 99 46.081 98.7629 45.659 98.341C45.2371 97.919 45 97.3467 45 96.75V49.5C45 48.9033 45.2371 48.331 45.659 47.909C46.081 47.4871 46.6533 47.25 47.25 47.25H99C99.4238 47.25 99.839 47.3697 100.198 47.5953C100.556 47.821 100.844 48.1433 101.028 48.5253C101.211 48.9073 101.283 49.3333 101.235 49.7544C101.188 50.1755 101.022 50.5745 100.757 50.9054L88.3814 66.375L100.757 81.8446Z" fill="#F7F7EF"/>
</svg>
