<svg width="59" height="57" viewBox="0 0 59 57" fill="none" xmlns="http://www.w3.org/2000/svg">
<path fill-rule="evenodd" clip-rule="evenodd" d="M0.981941 1.45695C0.746207 2.3606 0.549762 3.28389 0.471184 4.20718C0.215806 7.46816 -0.0788602 18.4101 0.0193622 20.6103C0.0193622 21.2782 0.137229 22.0247 0.412251 22.6337C0.903363 23.7142 2.16061 23.7927 2.84817 22.7909C3.10354 22.4373 3.2607 21.9658 3.33928 21.514C3.55537 20.1978 3.73217 18.8816 3.83039 17.5654C4.10541 13.5972 4.36079 9.60942 4.53759 5.64123C4.59653 4.32505 4.45901 2.98922 4.30186 1.67304C4.18399 0.69082 3.37857 -0.0556708 2.63208 0.0032626C1.74808 0.0818405 1.19803 0.65153 0.981941 1.45695ZM27.8556 27.6231C27.9309 27.3219 27.9962 27.0387 28.0585 26.7684L28.0585 26.7684C28.1912 26.1927 28.3104 25.6756 28.4842 25.1676C31.038 17.6241 35.1437 10.9057 39.8191 4.52123C40.3691 3.77474 41.0567 3.06754 41.8228 2.59607C42.2354 2.34069 43.0604 2.37998 43.5319 2.63536C43.8855 2.8318 44.1409 3.59794 44.0623 4.03011C43.9248 4.85518 43.6301 5.6999 43.2176 6.44639C40.5067 11.3772 37.7761 16.2883 35.0062 21.1798C34.1914 22.6094 33.3406 24.0271 32.4913 25.4421L32.4911 25.4424C32.2552 25.8355 32.0194 26.2284 31.7845 26.6213C31.4309 27.2302 31.038 27.8196 30.6255 28.3696C30.1737 28.9983 29.4861 29.3715 28.7985 28.959C28.7551 28.9325 28.7114 28.9068 28.6677 28.8812C28.2569 28.64 27.8556 28.4044 27.8556 27.6231ZM54.6815 56.7241L54.6813 56.7241C53.9982 56.6253 53.2746 56.5206 52.5683 56.3636L52.5672 56.3634L52.5664 56.3632C48.3828 55.4204 44.1991 54.4776 40.0352 53.4955C39.1315 53.2794 38.2475 52.9062 37.4421 52.474C36.3616 51.9043 35.9884 51.0989 36.1652 50.2149C36.342 49.3309 37.0492 48.7809 38.2868 48.7612C39.1315 48.7416 40.0352 48.7612 40.8406 48.9577C46.125 50.2935 51.4093 51.6686 56.674 53.0633C57.2634 53.2205 57.8723 53.4955 58.3242 53.8884C59.4635 54.851 59.1099 56.3636 57.6563 56.7369C57.2962 56.8238 56.9047 56.8322 56.4719 56.8415H56.4719H56.4717C56.2198 56.847 55.954 56.8527 55.6722 56.8744C55.357 56.8218 55.0244 56.7737 54.6815 56.7241Z" fill="#FF8882"/>
</svg>
