<svg width="302" height="406" viewBox="0 0 302 406" fill="none" xmlns="http://www.w3.org/2000/svg">
<g style="mix-blend-mode:overlay">
<path d="M55.7123 101.235C44.5783 104.898 34.8041 104.701 26.3899 100.643C22.5899 98.8109 19.0469 96.0987 15.7608 92.5068C12.6057 88.6434 9.36095 83.2314 6.02667 76.2707C-0.351163 63.8277 -1.51126 53.3991 2.54638 44.9849C5.16422 39.5564 11.3616 34.6831 21.1385 30.3651C30.644 25.9161 42.1803 22.112 55.7476 18.9527C69.4457 15.522 84.4307 12.5446 100.703 10.0205C117.246 7.62728 133.729 5.70664 150.151 4.25859C166.573 2.81054 182.26 1.84472 197.214 1.36113C212.167 0.877545 224.968 0.694314 235.617 0.811442C241.821 1.12697 247.357 1.78901 252.223 2.79757C257.09 3.80613 261.83 5.42299 266.444 7.64815C275.673 12.0985 282.759 17.5229 287.702 23.9214C293.048 30.1794 296.719 37.1353 298.716 44.789C300.712 52.4427 301.502 60.518 301.084 69.0149C301.069 77.3713 300.179 85.8076 298.414 94.3238C297.051 102.699 295.151 111.15 292.712 119.676C290.404 127.93 288.358 135.642 286.574 142.811C283.378 154.986 279.333 168.926 274.436 184.631C269.941 200.194 264.848 216.306 259.157 232.965C253.596 249.352 247.899 265.674 242.067 281.931C236.637 298.047 231.394 313.082 226.337 327.037C221.412 340.72 216.864 352.578 212.695 362.611C208.928 372.504 206.063 379.486 204.099 383.557C194.937 402.557 180.206 409.17 159.907 403.395C148.546 400.593 141.171 398.542 137.783 397.243C134.395 395.943 132.158 395.032 131.072 394.508C122.658 390.451 117.05 384.736 114.249 377.363C111.72 370.121 112.404 361.418 116.302 351.254C130.855 313.443 144.871 275.707 158.349 238.046C171.957 200.114 183.4 161.472 192.675 122.119C194.842 113.462 194.872 106.116 192.764 100.081C190.656 94.0467 186.752 89.6549 181.052 86.9062C175.623 84.2884 167.79 83.1875 157.553 83.6036C147.316 84.0197 136.214 85.1894 124.246 87.1128C112.279 89.0362 100.115 91.3667 87.7545 94.1044C75.7966 96.7016 65.1158 99.0783 55.7123 101.235Z" fill="black"/>
</g>
</svg>
