<svg width="312" height="428" viewBox="0 0 312 428" fill="none" xmlns="http://www.w3.org/2000/svg">
<g style="mix-blend-mode:overlay">
<path d="M118.394 227.435C116.822 226.953 115.405 226.438 114.146 225.889C112.886 225.34 111.687 224.697 110.55 223.959C104.676 220.145 101.298 215.393 100.414 209.702C99.5298 204.01 100.705 197.636 103.94 190.578L109.801 177.818C110.416 176.871 110.874 175.956 111.177 175.076C111.48 174.195 111.815 173.47 112.184 172.901C115.752 167.406 119.813 163.848 124.367 162.226C129.234 160.538 134.211 160.132 139.297 161.01C144.696 161.822 150.138 163.604 155.623 166.357C161.231 168.921 166.749 171.83 172.178 175.085C183.793 182.087 195.012 184.926 205.837 183.604C216.973 182.215 226.601 175.268 234.72 162.762C239.272 155.751 241.19 148.647 240.476 141.45C239.885 134.063 237.636 126.947 233.731 120.102C230.015 113.38 225.082 107.08 218.932 101.202C213.095 95.2575 207.05 90.2555 200.797 86.196C187.912 77.831 174.783 72.5394 161.409 70.3211C148.158 67.9133 134.615 67.201 120.779 68.184C111.886 68.6056 105.166 67.3402 100.618 64.3879C97.3969 62.2966 94.9188 59.4757 93.1837 55.9252C91.4486 52.3746 90.2904 47.3132 89.7091 40.7408C89.1645 32.0375 89.1184 25.678 89.5708 21.6622C90.1462 17.4569 91.295 14.0279 93.0172 11.3751C95.7235 7.20654 100.074 4.23982 106.068 2.47499C112.374 0.643686 119.633 -0.165303 127.844 0.0480199C136.245 0.384358 145.408 1.61999 155.335 3.75493C165.261 5.88986 175.259 8.74452 185.329 12.3189C195.587 16.0163 205.633 20.249 215.467 25.0168C225.612 29.7182 235.043 34.8982 243.759 40.5569C259.865 51.0132 273.164 62.4749 283.654 74.942C294.335 87.5322 301.98 100.441 306.59 113.669C311.2 126.897 312.647 140.227 310.931 153.657C309.527 167.021 304.888 179.766 297.015 191.893C292.464 198.904 286.932 205.143 280.419 210.611C274.095 216.203 266.569 220.743 257.839 224.233C252.536 226.178 249.208 228.192 247.855 230.276C245.764 233.497 246.605 238.218 250.377 244.438C257.601 256.131 262.726 267.943 265.754 279.874C268.904 291.616 270.08 303.288 269.282 314.89C268.796 326.425 266.552 337.763 262.552 348.903C258.865 359.976 253.761 370.534 247.242 380.576C237.277 395.924 225.104 407.414 210.723 415.046C196.464 422.488 181.195 426.716 164.915 427.729C148.758 428.552 132.221 426.435 115.304 421.378C98.5761 416.443 82.7276 409.117 67.7586 399.398C54.4949 390.787 42.9068 380.84 32.9942 369.556C23.1482 358.585 15.3899 346.68 9.71938 333.841C4.36136 320.935 1.19082 307.565 0.207748 293.728C-0.652306 279.703 1.30507 265.486 6.07986 251.079C6.43899 249.696 6.95437 248.28 7.62599 246.83C8.29762 245.381 9.00247 244.088 9.74056 242.951C13.185 237.645 17.7861 234.707 23.544 234.135C29.3019 233.564 35.2125 235.247 41.2759 239.183L58.6432 252.882C65.0389 258.381 68.6787 263.977 69.5626 269.668C70.5695 275.17 70.4028 282.065 69.0626 290.352C67.8919 297.134 68.3453 303.488 70.4226 309.416C72.4999 315.343 75.543 320.821 79.5519 325.847C83.7502 330.997 88.5071 335.701 93.8225 339.96C99.3273 344.342 104.827 348.317 110.322 351.884C117.901 356.805 125.404 360.599 132.831 363.265C140.257 365.932 147.29 367.131 153.929 366.862C160.757 366.716 167.125 364.79 173.033 361.084C179.13 357.501 184.7 351.825 189.744 344.056C195.649 334.961 199.043 325.583 199.928 315.922C201.003 306.385 200.264 297.151 197.711 288.222C195.159 279.292 191.049 271.102 185.381 263.652C179.837 256.012 173.275 249.732 165.695 244.811C159.253 240.629 151.788 237.399 143.301 235.121C134.937 232.654 126.635 230.092 118.394 227.435Z" fill="black"/>
</g>
</svg>
