<svg width="363" height="402" viewBox="0 0 363 402" fill="none" xmlns="http://www.w3.org/2000/svg">
<g style="mix-blend-mode:overlay">
<path d="M61.481 121.01C60.179 126.952 58.2594 131.792 55.7223 135.531C53.1852 139.269 49.7802 141.873 45.5073 143.341C43.5845 144.002 41.0876 144.383 38.0165 144.483C34.9454 144.583 30.1919 144.306 23.756 143.651C11.8055 141.548 4.36158 136.223 1.42429 127.678C-0.264659 122.764 -0.421382 117.443 0.954115 111.714C3.63833 100.759 7.54095 90.2204 12.662 80.0993C17.9232 69.6911 24.513 60.0208 32.4314 51.0881C40.5634 42.0821 50.0607 33.9206 60.9232 26.6038C71.9994 19.2135 84.6946 13.0583 99.0087 8.13835C113.75 3.07152 128.515 0.504957 143.303 0.438664C158.091 0.372371 171.937 2.77961 184.842 7.66039C197.674 12.3275 209.03 19.6518 218.911 29.6331C228.932 39.3274 236.475 51.5453 241.542 66.2867C247.637 84.0191 250.06 102.536 248.811 121.837C247.488 140.924 243.883 160.319 237.994 180.02C232.245 199.435 224.78 218.722 215.599 237.883C206.345 256.83 196.798 274.923 186.956 292.16C185.267 294.891 184.219 297.401 183.812 299.691C183.618 301.908 183.815 303.871 184.402 305.58C185.21 307.93 186.976 309.592 189.7 310.567C192.564 311.255 196.132 310.864 200.405 309.396C222.137 303.121 243.801 297.346 265.399 292.073C286.924 286.586 308.665 281.382 330.624 276.462C345.599 273.465 355.179 278.055 359.365 290.233C359.952 291.942 360.543 294.009 361.137 296.432C361.658 298.642 362.092 303.032 362.439 309.601C363.226 317.452 361.751 323.932 358.012 329.039C354.486 334.073 349.412 337.728 342.789 340.004C338.517 341.473 331.64 343.359 322.16 345.662C312.753 348.178 301.777 350.995 289.232 354.113C276.687 357.23 263 360.501 248.172 363.926C233.418 367.564 218.486 371.382 203.377 375.381C188.483 379.306 173.838 383.265 159.444 387.257C145.123 391.462 132.087 395.584 120.337 399.623C115.637 401.239 111.21 401.566 107.058 400.604C103.192 399.783 99.6406 398.137 96.4026 395.667C93.3049 392.909 90.5578 389.434 88.1611 385.241C85.7644 381.049 83.7216 376.495 82.0327 371.582C79.9766 365.6 79.4961 360.031 80.5912 354.877C81.8264 349.436 84.2768 344.055 87.9423 338.734C95.2732 328.093 103.095 316.446 111.407 303.795C119.933 291.07 128.276 277.811 136.435 264.018C144.593 250.225 152.071 236.189 158.868 221.908C165.805 207.341 171.424 193.107 175.724 179.207C180.164 165.02 182.895 151.421 183.917 138.409C184.865 125.183 183.394 112.909 179.502 101.586C176.858 93.8944 172.906 87.6085 167.645 82.728C162.525 77.5604 156.56 73.7581 149.75 71.321C143.08 68.5969 135.96 67.3415 128.389 67.5549C120.745 67.5547 113.291 68.8029 106.027 71.2996C91.9263 76.1461 81.6313 83.029 75.1416 91.9484C68.652 100.868 64.0985 110.555 61.481 121.01Z" fill="black"/>
</g>
</svg>
