<svg width="145" height="144" viewBox="0 0 145 144" fill="none" xmlns="http://www.w3.org/2000/svg">
<circle cx="72.5" cy="72" r="72" fill="#194351"/>
<path d="M85.5 61.875V88.875C85.4986 90.0681 85.0241 91.2119 84.1805 92.0555C83.3369 92.8991 82.1931 93.3736 81 93.375H49.5C46.5174 93.3716 43.6579 92.1852 41.5488 90.0762C39.4398 87.9671 38.2534 85.1076 38.25 82.125V55.125C38.2514 53.9319 38.7259 52.7881 39.5695 51.9445C40.4131 51.1009 41.5569 50.6264 42.75 50.625H74.25C77.2326 50.6284 80.0921 51.8148 82.2012 53.9238C84.3102 56.0329 85.4966 58.8924 85.5 61.875ZM104.629 56.554C104.289 56.3563 103.902 56.2515 103.508 56.2502C103.114 56.2488 102.726 56.351 102.384 56.5464L91.1338 62.975C90.7894 63.1718 90.5031 63.4561 90.304 63.7992C90.1049 64.1423 90 64.532 90 64.9286V79.0714C90 79.468 90.1049 79.8577 90.304 80.2008C90.5031 80.5438 90.7894 80.8282 91.1338 81.025L102.384 87.4536C102.726 87.6491 103.114 87.7513 103.508 87.75C103.902 87.7486 104.289 87.6438 104.629 87.446C104.97 87.2482 105.253 86.9643 105.45 86.6228C105.646 86.2813 105.75 85.8941 105.75 85.5V58.5C105.75 58.1059 105.647 57.7187 105.45 57.3772C105.253 57.0357 104.97 56.7518 104.629 56.554Z" fill="#F7F7EF"/>
</svg>
