<svg width="145" height="144" viewBox="0 0 145 144" fill="none" xmlns="http://www.w3.org/2000/svg">
<circle cx="72.5" cy="72" r="72" fill="#194351"/>
<path d="M96.7522 47.25H56.2522C55.0591 47.2514 53.9153 47.7259 53.0717 48.5695C52.2281 49.4131 51.7535 50.5569 51.7522 51.75V56.25H47.2522C46.0591 56.2514 44.9153 56.7259 44.0717 57.5695C43.2281 58.4131 42.7536 59.5569 42.7522 60.75V67.4565C42.7519 67.4711 42.75 67.4853 42.75 67.5C42.75 67.5147 42.7519 67.5289 42.7522 67.5435V92.25C42.7536 93.4431 43.2281 94.5869 44.0717 95.4305C44.9153 96.2741 46.0591 96.7486 47.2522 96.75H87.7522C88.9453 96.7486 90.0891 96.2741 90.9327 95.4305C91.7763 94.5869 92.2508 93.4431 92.2522 92.25V87.75H96.7522C97.9453 87.7486 99.0891 87.2741 99.9327 86.4305C100.776 85.5869 101.251 84.4431 101.252 83.25V51.75C101.251 50.5569 100.776 49.4131 99.9327 48.5695C99.0891 47.7259 97.9453 47.2514 96.7522 47.25ZM87.7522 60.75L87.7526 65.25H47.2522V60.75H87.7522ZM96.7522 83.25H92.2522V60.75C92.2508 59.5569 91.7763 58.4131 90.9327 57.5695C90.0891 56.7259 88.9453 56.2514 87.7522 56.25H56.2522V51.75H96.7522V83.25Z" fill="#F7F7EF"/>
</svg>
